<?xml version="1.0" encoding="UTF-8"?>
<svg xmlns="http://www.w3.org/2000/svg" viewBox="0 0 1980 1075" xmlns:c2pa="http://c2pa.org/manifest"><metadata><c2pa:manifest>AAAWgmp1bWIAAAAeanVtZGMycGEAEQAQgAAAqgA4m3EDYzJwYQAAABZcanVtYgAAAEdqdW1kYzJtYQARABCAAACqADibcQN1cm46YzJwYTo3YWMxNDYyOC1kZWM0LTQ3YTEtODJjMS05NWFmYmQ0NWQ2OTMAAAADl2p1bWIAAAApanVtZGMyYXMAEQAQgAAAqgA4m3EDYzJwYS5hc3NlcnRpb25zAAAAALxqdW1iAAAARGp1bWRjYm9yABEAEIAAAKoAOJtxE2MycGEuaW5ncmVkaWVudC52MwAAAAAYYzJzaOaWccPyafP6JnJGH4sCdxkAAABwY2JvcqNpZGM6Zm9ybWF0bWltYWdlL3N2Zyt4bWxqaW5zdGFuY2VJRHgseG1wOmlpZDo1NGE5NzcwZS00MGI1LTQ1MWMtODkyNC0xOTYyMzI1ZTRhNWNscmVsYXRpb25zaGlwaHBhcmVudE9mAAAB4mp1bWIAAABBanVtZGNib3IAEQAQgAAAqgA4m3ETYzJwYS5hY3Rpb25zLnYyAAAAABhjMnNoSsB1wk5WzYULfhhfM+yRyAAAAZljYm9yomdhY3Rpb25zgqJmYWN0aW9ua2MycGEub3BlbmVkanBhcmFtZXRlcnOha2luZ3JlZGllbnRzgaJjdXJseC1zZWxmI2p1bWJmPWMycGEuYXNzZXJ0aW9ucy9jMnBhLmluZ3JlZGllbnQudjNkaGFzaFgg1nLBdXEY1jXfyW0IG8abaWI/mikMT8RtDotgu8IQEHqkZmFjdGlvbngdY29tLmFudGhyb3BpYy5jbGF1ZGUucHJvdmlkZWRqcGFyYW1ldGVyc6F4H2NvbS5hbnRocm9waWMub3JpZ2luLWNvbmZpZGVuY2VndW5rbm93bmtkZXNjcmlwdGlvbnhmQ2xhdWRlIHByb3ZpZGVkIHRoaXMgZmlsZSBhdCB0aGUgcmVxdWVzdCBvZiBhIHVzZXIgYW5kIG1heSBoYXZlIGNyZWF0ZWQgb3IgbW9kaWZpZWQgdGhlIGZpbGUgY29udGVudHMubXNvZnR3YXJlQWdlbnShZG5hbWVmQ2xhdWRlcmFsbEFjdGlvbnNJbmNsdWRlZPUAAADIanVtYgAAAEBqdW1kY2JvcgARABCAAACqADibcRNjMnBhLmhhc2guZGF0YQAAAAAYYzJzaKyRw9Sl5sJ1PIXe6Q7oOVMAAACAY2JvcqVjYWxnZnNoYTI1NmNwYWRNAAAAAAAAAAAAAAAAAGRoYXNoWCB7V6XEwqAleB9sxouC+zc2LngeTmvFJyUNgOkesBRUMGRuYW1lbmp1bWJmIG1hbmlmZXN0amV4Y2x1c2lvbnOBomVzdGFydBimZmxlbmd0aBkeBAAAAj5qdW1iAAAAJ2p1bWRjMmNsABEAEIAAAKoAOJtxA2MycGEuY2xhaW0udjIAAAACD2Nib3KlY2FsZ2ZzaGEyNTZpc2lnbmF0dXJleE1zZWxmI2p1bWJmPS9jMnBhL3VybjpjMnBhOjdhYzE0NjI4LWRlYzQtNDdhMS04MmMxLTk1YWZiZDQ1ZDY5My9jMnBhLnNpZ25hdHVyZWppbnN0YW5jZUlEeCx4bXA6aWlkOmJhOTMyYzZiLTZiZTgtNDIzZC1hNzZhLWQzZTU0ZDQ5N2UzOXJjcmVhdGVkX2Fzc2VydGlvbnODomN1cmx4LXNlbGYjanVtYmY9YzJwYS5hc3NlcnRpb25zL2MycGEuaW5ncmVkaWVudC52M2RoYXNoWCDWcsF1cRjWNd/JbQgbxptpYj+aKQxPxG0Oi2C7whAQeqJjdXJseCpzZWxmI2p1bWJmPWMycGEuYXNzZXJ0aW9ucy9jMnBhLmFjdGlvbnMudjJkaGFzaFgg+oiCLk/luQNQnyTnt9gPec5uD/Ns3D/RGPegHFJetkmiY3VybHgpc2VsZiNqdW1iZj1jMnBhLmFzc2VydGlvbnMvYzJwYS5oYXNoLmRhdGFkaGFzaFggU2GtKLA1CVqcioGYNDSdrZm/A2g6R+numDE6uPHPucZ0Y2xhaW1fZ2VuZXJhdG9yX2luZm+jZG5hbWVvQW50aHJvcGljIEZpbGVzZ3ZlcnNpb25lMS4wLjBrc3BlY1ZlcnNpb25lMi40LjAAABA4anVtYgAAAChqdW1kYzJjcwARABCAAACqADibcQNjMnBhLnNpZ25hdHVyZQAAABAIY2JvctKEWQISogEmGCFZAgowggIGMIIBjaADAgECAhRA5aAK7sI50L64g/oGQgU9Z1UTADAKBggqhkjOPQQDAzBJMRcwFQYDVQQKEw5BbnRocm9waWMsIFBCQzEuMCwGA1UEAxMlQW50aHJvcGljIENvbnRlbnQgQ3JlZGVudGlhbHMgUm9vdCBDQTAeFw0yNjA4MDcxODQzNTZaFw0yODA4MDYxOTQzNTZaMEQxFzAVBgNVBAoTDkFudGhyb3BpYywgUEJDMSkwJwYDVQQDEyBBbnRocm9waWMgQ2xhdWRlIENvbnRlbnQgU2lnbmluZzBZMBMGByqGSM49AgEGCCqGSM49AwEHA0IABJh6CmvLUBgFFNU0vUKlOVtE6djd17L5SuwX0LemFisBM3dkd/3cyjxFA3Qo5S46fX0/ihY0VZ7mfb9KF703t5OjWDBWMA4GA1UdDwEB/wQEAwIHgDAVBgNVHSUEDjAMBgorBgEEAYPoXgIBMAwGA1UdEwEB/wQCMAAwHwYDVR0jBBgwFoAUzlHiBIFOZFsj+OPEz5o+nMHXXMIwCgYIKoZIzj0EAwMDZwAwZAIwMXMdFJ4BetLLVY7ORuE9noqbbAZOZn/aArXyTwFAZfKrPzxF2vPoJNf1+UCdg1XGAjBwX1zd9WGqYkqmL5SFqw1QySjr1zJfpJM9+1rdDwSPLMOPOjKuiXjoU/pUUeG9RwmhY3BhZFkNngAAAAAAAAAAAAAAAAAAAAAAAAAAAAAAAAAAAAAAAAAAAAAAAAAAAAAAAAAAAAAAAAAAAAAAAAAAAAAAAAAAAAAAAAAAAAAAAAAAAAAAAAAAAAAAAAAAAAAAAAAAAAAAAAAAAAAAAAAAAAAAAAAAAAAAAAAAAAAAAAAAAAAAAAAAAAAAAAAAAAAAAAAAAAAAAAAAAAAAAAAAAAAAAAAAAAAAAAAAAAAAAAAAAAAAAAAAAAAAAAAAAAAAAAAAAAAAAAAAAAAAAAAAAAAAAAAAAAAAAAAAAAAAAAAAAAAAAAAAAAAAAAAAAAAAAAAAAAAAAAAAAAAAAAAAAAAAAAAAAAAAAAAAAAAAAAAAAAAAAAAAAAAAAAAAAAAAAAAAAAAAAAAAAAAAAAAAAAAAAAAAAAAAAAAAAAAAAAAAAAAAAAAAAAAAAAAAAAAAAAAAAAAAAAAAAAAAAAAAAAAAAAAAAAAAAAAAAAAAAAAAAAAAAAAAAAAAAAAAAAAAAAAAAAAAAAAAAAAAAAAAAAAAAAAAAAAAAAAAAAAAAAAAAAAAAAAAAAAAAAAAAAAAAAAAAAAAAAAAAAAAAAAAAAAAAAAAAAAAAAAAAAAAAAAAAAAAAAAAAAAAAAAAAAAAAAAAAAAAAAAAAAAAAAAAAAAAAAAAAAAAAAAAAAAAAAAAAAAAAAAAAAAAAAAAAAAAAAAAAAAAAAAAAAAAAAAAAAAAAAAAAAAAAAAAAAAAAAAAAAAAAAAAAAAAAAAAAAAAAAAAAAAAAAAAAAAAAAAAAAAAAAAAAAAAAAAAAAAAAAAAAAAAAAAAAAAAAAAAAAAAAAAAAAAAAAAAAAAAAAAAAAAAAAAAAAAAAAAAAAAAAAAAAAAAAAAAAAAAAAAAAAAAAAAAAAAAAAAAAAAAAAAAAAAAAAAAAAAAAAAAAAAAAAAAAAAAAAAAAAAAAAAAAAAAAAAAAAAAAAAAAAAAAAAAAAAAAAAAAAAAAAAAAAAAAAAAAAAAAAAAAAAAAAAAAAAAAAAAAAAAAAAAAAAAAAAAAAAAAAAAAAAAAAAAAAAAAAAAAAAAAAAAAAAAAAAAAAAAAAAAAAAAAAAAAAAAAAAAAAAAAAAAAAAAAAAAAAAAAAAAAAAAAAAAAAAAAAAAAAAAAAAAAAAAAAAAAAAAAAAAAAAAAAAAAAAAAAAAAAAAAAAAAAAAAAAAAAAAAAAAAAAAAAAAAAAAAAAAAAAAAAAAAAAAAAAAAAAAAAAAAAAAAAAAAAAAAAAAAAAAAAAAAAAAAAAAAAAAAAAAAAAAAAAAAAAAAAAAAAAAAAAAAAAAAAAAAAAAAAAAAAAAAAAAAAAAAAAAAAAAAAAAAAAAAAAAAAAAAAAAAAAAAAAAAAAAAAAAAAAAAAAAAAAAAAAAAAAAAAAAAAAAAAAAAAAAAAAAAAAAAAAAAAAAAAAAAAAAAAAAAAAAAAAAAAAAAAAAAAAAAAAAAAAAAAAAAAAAAAAAAAAAAAAAAAAAAAAAAAAAAAAAAAAAAAAAAAAAAAAAAAAAAAAAAAAAAAAAAAAAAAAAAAAAAAAAAAAAAAAAAAAAAAAAAAAAAAAAAAAAAAAAAAAAAAAAAAAAAAAAAAAAAAAAAAAAAAAAAAAAAAAAAAAAAAAAAAAAAAAAAAAAAAAAAAAAAAAAAAAAAAAAAAAAAAAAAAAAAAAAAAAAAAAAAAAAAAAAAAAAAAAAAAAAAAAAAAAAAAAAAAAAAAAAAAAAAAAAAAAAAAAAAAAAAAAAAAAAAAAAAAAAAAAAAAAAAAAAAAAAAAAAAAAAAAAAAAAAAAAAAAAAAAAAAAAAAAAAAAAAAAAAAAAAAAAAAAAAAAAAAAAAAAAAAAAAAAAAAAAAAAAAAAAAAAAAAAAAAAAAAAAAAAAAAAAAAAAAAAAAAAAAAAAAAAAAAAAAAAAAAAAAAAAAAAAAAAAAAAAAAAAAAAAAAAAAAAAAAAAAAAAAAAAAAAAAAAAAAAAAAAAAAAAAAAAAAAAAAAAAAAAAAAAAAAAAAAAAAAAAAAAAAAAAAAAAAAAAAAAAAAAAAAAAAAAAAAAAAAAAAAAAAAAAAAAAAAAAAAAAAAAAAAAAAAAAAAAAAAAAAAAAAAAAAAAAAAAAAAAAAAAAAAAAAAAAAAAAAAAAAAAAAAAAAAAAAAAAAAAAAAAAAAAAAAAAAAAAAAAAAAAAAAAAAAAAAAAAAAAAAAAAAAAAAAAAAAAAAAAAAAAAAAAAAAAAAAAAAAAAAAAAAAAAAAAAAAAAAAAAAAAAAAAAAAAAAAAAAAAAAAAAAAAAAAAAAAAAAAAAAAAAAAAAAAAAAAAAAAAAAAAAAAAAAAAAAAAAAAAAAAAAAAAAAAAAAAAAAAAAAAAAAAAAAAAAAAAAAAAAAAAAAAAAAAAAAAAAAAAAAAAAAAAAAAAAAAAAAAAAAAAAAAAAAAAAAAAAAAAAAAAAAAAAAAAAAAAAAAAAAAAAAAAAAAAAAAAAAAAAAAAAAAAAAAAAAAAAAAAAAAAAAAAAAAAAAAAAAAAAAAAAAAAAAAAAAAAAAAAAAAAAAAAAAAAAAAAAAAAAAAAAAAAAAAAAAAAAAAAAAAAAAAAAAAAAAAAAAAAAAAAAAAAAAAAAAAAAAAAAAAAAAAAAAAAAAAAAAAAAAAAAAAAAAAAAAAAAAAAAAAAAAAAAAAAAAAAAAAAAAAAAAAAAAAAAAAAAAAAAAAAAAAAAAAAAAAAAAAAAAAAAAAAAAAAAAAAAAAAAAAAAAAAAAAAAAAAAAAAAAAAAAAAAAAAAAAAAAAAAAAAAAAAAAAAAAAAAAAAAAAAAAAAAAAAAAAAAAAAAAAAAAAAAAAAAAAAAAAAAAAAAAAAAAAAAAAAAAAAAAAAAAAAAAAAAAAAAAAAAAAAAAAAAAAAAAAAAAAAAAAAAAAAAAAAAAAAAAAAAAAAAAAAAAAAAAAAAAAAAAAAAAAAAAAAAAAAAAAAAAAAAAAAAAAAAAAAAAAAAAAAAAAAAAAAAAAAAAAAAAAAAAAAAAAAAAAAAAAAAAAAAAAAAAAAAAAAAAAAAAAAAAAAAAAAAAAAAAAAAAAAAAAAAAAAAAAAAAAAAAAAAAAAAAAAAAAAAAAAAAAAAAAAAAAAAAAAAAAAAAAAAAAAAAAAAAAAAAAAAAAAAAAAAAAAAAAAAAAAAAAAAAAAAAAAAAAAAAAAAAAAAAAAAAAAAAAAAAAAAAAAAAAAAAAAAAAAAAAAAAAAAAAAAAAAAAAAAAAAAAAAAAAAAAAAAAAAAAAAAAAAAAAAAAAAAAAAAAAAAAAAAAAAAAAAAAAAAAAAAAAAAAAAAAAAAAAAAAAAAAAAAAAAAAAAAAAAAAAAAAAAAAAAAAAAAAAAAAAAAAAAAAAAAAAAAAAAAAAAAAAAAAAAAAAAAAAAAAAAAAAAAAAAAAAAAAAAAAAAAAAAAAAAAAAAAAAAAAAAAAAAAAAAAAAAAAAAAAAAAAAAAAAAAAAAAAAAAAAAAAAAAAAAAAAAAAAAAAAAAAAAAAAAAAAAAAAAAAAAAAAAAAAAAAAAAAAAAAAAAAAAAAAAAAAAAAAAAAAAAAAAAAAAAAAAAAAAAAAAAAAAAAAAAAAAAAAAAAAAAAAAAAAAAAAAAAAAAAAAAAAAAAAAAAAAAAAAAAAAAAAAAAAAAAAAAAAAAAAAAAAAAAAAAAAAAAAAAAAAAAAAAAAAAAAAAAAAAAAAAAAAAAAAAAAAAAAAAAAAAAAAAAAAAAAAAAAAAAAAAAAAAAAAAAAAAAAAAAAAAAAAAAAAAAAAAAAAAAAAAAAAAAAAAAAAAAAAAAAAAAAAAAAAAAAAAAAAAAAAAAAAAAAAAAAAAAAAAAAAAAAAAAAAAAAAAAAAAAAAAAAAAAAAAAAAAAAAAAAAAAAAAAAAAAAAAAAAAAAAAAAAAAAAAAAAAAAAAAAAAAAAAAAAAAAAAAAAAAAAAAAAAAAAAAAAAAAAAAAAAAAAAAAAAAAAAAAAAAAAAAAAAAAAAAAAAAAAAAAAAAAAAAAAAAAAAAAAAAAAAAAAAAAAAAAAAAAAAAAAAAAAAAAAAAAAAAAAAAAAAAAAAAAAAAAAAAAAAAAAAAAAAAAAAAAAAAAAAAAAAAAAAAAAAAAAAAAAAAAAAAAAAAAAAAAAAAAAAAAAAAAAAAAAAAAAAAAAAAAAAAAAAAAAAAAAAAAAAAAAAAAAAAAAAAAAAAAAAAAAAAAAAAAAAAAAAAAAAAAAAAAAAAAAAAAAAAAAAAAAAAAAAAAAAAAAAAAAAAAAAAAAAAAAAAAAAAAAAAAAAAAAAAAAAAAAAAAAAAAAAAAAAAAAAAAAAAAAAAAAAAAAAAAAAAAAAAAAAAAAAAAAAAAAAAAAAAAAAAAAAAAAAAAAAAAAAAAAAAAAAAAAAAAAAAAAAAAAAAAAAAAAAAAAAAAAAAAAAAAAAAAAAAAAAAAAAAAAAAAAAAAAAAAAAAAAAAAAAAAAAAAAAAAAAAAAAAAAAAAAAAAAAAAAAAAAAAAAAAAAAAAAAAAAAAAAAAAAAAAAAAAAAAAAAAAAAAAAAAAAAAAAAAAAAAAAAAAAAAAAAAAAAAAAAAAAAAAAAAAAAAAAAAAAAAAAAAAAAAAAAAAAAAAAAAAAAAAAAAAAAAAAAAAAAAAAAAAAAAAAAAAAAAPZYQNcJafunPERg7v6D5FfLI3rfZhl04ISLiaLlpumqmwvEZpqrYqilQn189zQVmaRwS78zSx/LdX/DSdiovvdWEZM=</c2pa:manifest></metadata>
<g transform="translate(0,1075) scale(0.1,-0.1)">
<path d="M213 10619 c-18 -5 -44 -24 -58 -43 l-25 -33 0 -572 c0 -510 2 -576
16 -600 35 -59 -30 -56 1094 -61 996 -5 1036 -6 1063 -24 15 -10 35 -32 43
-47 12 -24 14 -494 14 -3550 0 -3490 0 -3523 20 -3564 39 -80 -11 -75 792 -75
677 0 714 1 741 19 15 10 36 29 45 42 16 22 17 258 22 3569 5 3281 6 3547 22
3568 43 61 -53 57 1281 62 l1218 5 355 654 c194 360 354 656 354 658 0 8
-6968 0 -6997 -8z" fill="#4d9335"/>
<path d="M8813 10618 c-4 -7 -166 -303 -359 -658 l-350 -645 5749 -3 c5503 -2
5751 -1 5781 16 67 39 66 26 66 640 0 606 1 599 -58 639 -26 17 -236 18 -5424
21 -4233 2 -5399 -1 -5405 -10z" fill="#4d9335"/>
<path d="M7272 9970 c-193 -357 -352 -652 -352 -655 0 -3 172 -4 382 -3 l381
3 304 560 c167 308 326 602 354 653 l50 92 -383 0 -384 0 -352 -650z" fill="#ffffff"/>
<path d="M5023 8695 c-18 -8 -42 -29 -53 -47 -20 -32 -20 -45 -18 -616 l3
-584 28 -24 28 -24 1442 0 c793 0 1511 -5 1596 -10 302 -19 524 -71 726 -170
147 -72 227 -132 370 -275 175 -174 223 -287 232 -550 11 -323 -56 -494 -274
-692 -253 -232 -454 -324 -843 -389 -96 -17 -237 -19 -1675 -24 -1203 -4
-1575 -8 -1591 -17 -12 -7 -26 -25 -33 -40 -8 -21 -11 -425 -9 -1570 l3 -1543
33 -32 32 -33 726 -3 c633 -2 729 -1 757 13 66 31 62 -27 67 940 5 830 6 882
23 907 10 15 30 35 45 45 25 17 77 18 882 24 907 6 935 7 1250 60 171 28 439
97 595 154 153 55 433 190 560 270 363 230 631 521 851 925 168 306 225 549
225 955 0 396 -53 631 -208 925 -230 435 -511 740 -899 976 -439 266 -966 414
-1614 454 -99 6 -775 10 -1695 10 -1291 -1 -1535 -3 -1562 -15z" fill="#ffffff"/>
<path d="M11903 8694 c-18 -9 -40 -28 -50 -43 -17 -25 -18 -164 -18 -3271 l0
-3245 23 -32 c14 -20 38 -37 60 -43 25 -8 244 -10 689 -8 643 3 652 3 680 24
15 11 33 36 40 55 9 26 12 428 12 1665 l1 1631 23 34 c46 68 125 80 182 27 20
-19 406 -644 924 -1493 489 -803 901 -1472 915 -1487 36 -37 66 -40 406 -36
257 3 299 5 321 20 17 10 357 567 924 1510 494 821 908 1504 919 1517 12 13
36 30 54 38 67 28 154 -24 167 -100 2 -18 8 -772 12 -1677 l8 -1645 23 -32
c14 -20 38 -37 60 -43 25 -8 244 -10 689 -8 643 3 652 3 680 24 15 11 34 38
41 58 10 30 12 696 10 3264 l-3 3227 -23 32 c-14 20 -38 37 -60 43 -25 8 -230
10 -639 8 l-603 -3 -26 -26 c-14 -15 -574 -953 -1243 -2085 -991 -1677 -1223
-2063 -1251 -2082 -41 -28 -97 -26 -138 5 -13 10 -561 909 -1218 1998 -1449
2402 -1301 2161 -1340 2180 -28 13 -114 15 -626 15 -520 0 -597 -2 -625 -16z" fill="#ffffff"/>
<path d="M5085 1540 c-107 -22 -191 -67 -254 -135 -62 -67 -84 -123 -89 -226
-6 -120 13 -181 79 -253 63 -69 120 -97 335 -165 234 -74 284 -113 284 -219 0
-61 -29 -107 -84 -136 -49 -25 -136 -32 -196 -16 -59 16 -118 76 -126 130 l-7
40 -148 0 c-113 0 -149 -3 -149 -12 0 -7 6 -38 14 -69 36 -154 165 -266 349
-306 97 -20 270 -13 349 16 152 53 248 159 278 305 25 120 -9 234 -94 315 -68
64 -118 88 -308 149 -182 59 -226 79 -262 122 -32 38 -40 69 -32 118 13 82 77
127 181 127 106 -1 180 -48 200 -128 l7 -27 150 0 150 0 -7 43 c-26 161 -167
292 -350 326 -67 13 -211 13 -270 1z" fill="#ffffff"/>
<path d="M16400 1536 c-98 -21 -173 -53 -254 -107 -200 -133 -309 -364 -292
-619 7 -119 24 -182 77 -290 78 -157 221 -273 409 -332 64 -20 95 -23 215 -22
123 0 150 4 220 27 108 36 197 90 270 163 55 56 121 159 140 222 l6 22 -155 0
-154 0 -21 -32 c-33 -54 -92 -105 -156 -135 -53 -25 -71 -28 -160 -27 -128 0
-192 24 -273 99 -225 208 -172 640 93 761 182 84 402 30 495 -121 l22 -35 154
0 155 0 -6 23 c-14 44 -68 136 -108 184 -86 101 -200 172 -332 208 -84 22
-264 28 -345 11z" fill="#ffffff"/>
<path d="M260 850 l0 -680 135 0 135 0 0 265 0 265 68 0 68 0 150 -262 150
-263 157 -3 c86 -1 157 -1 157 1 0 3 -72 125 -160 273 -88 148 -160 271 -160
274 0 3 21 13 48 22 229 82 327 348 209 571 -52 99 -141 163 -272 197 -70 18
-111 20 -382 20 l-303 0 0 -680z m597 445 c115 -34 165 -169 107 -292 -37 -76
-135 -107 -330 -101 l-99 3 -3 203 -2 202 138 0 c94 0 155 -5 189 -15z" fill="#ffffff"/>
<path d="M2620 850 l0 -680 395 0 395 0 0 110 0 110 -260 0 -260 0 2 183 3
182 228 3 227 2 0 105 0 105 -230 0 -230 0 0 170 0 170 260 0 260 0 0 110 0
110 -395 0 -395 0 0 -680z" fill="#ffffff"/>
<path d="M7070 850 l0 -680 135 0 135 0 0 680 0 680 -135 0 -135 0 0 -680z" fill="#ffffff"/>
<path d="M8720 850 l0 -682 313 4 c281 4 320 7 391 26 131 36 221 86 307 172
83 83 117 137 157 250 24 68 26 89 27 225 0 139 -2 157 -29 238 -69 210 -218
350 -446 418 -69 21 -100 23 -397 27 l-323 4 0 -682z m608 440 c154 -36 272
-159 302 -318 18 -88 8 -242 -19 -313 -43 -113 -122 -189 -236 -230 -48 -17
-91 -22 -222 -26 l-163 -6 0 452 0 451 148 0 c81 0 166 -5 190 -10z" fill="#ffffff"/>
<path d="M11230 850 l0 -680 395 0 395 0 0 110 0 110 -260 0 -260 0 2 183 3
182 228 3 227 2 0 105 0 105 -230 0 -230 0 0 170 0 170 260 0 260 0 0 110 0
110 -395 0 -395 0 0 -680z" fill="#ffffff"/>
<path d="M13370 850 l0 -680 135 0 135 0 2 467 3 466 313 -466 313 -467 135 0
134 0 0 680 0 680 -135 0 -135 0 -2 -466 -3 -467 -310 466 -310 466 -137 1
-138 0 0 -680z" fill="#ffffff"/>
<path d="M18420 1525 c0 -2 104 -201 230 -441 l230 -437 0 -238 0 -239 135 0
135 0 0 234 0 233 234 447 234 446 -152 0 -153 0 -143 -305 c-79 -168 -147
-305 -150 -305 -4 0 -72 137 -151 305 l-144 305 -152 0 c-84 0 -153 -2 -153
-5z" fill="#ffffff"/>
</g>
</svg>